<svg xmlns="http://www.w3.org/2000/svg">
<defs>
	<symbol id="logo" viewBox="0 0 3042 2778">
		<path d="M1924 2330c-60,-84 -104,-184 -124,-280l-157 0c12,75 44,199 128,330 -53,88 -147,175 -247,228 0,0 0,0 0,0 0,0 0,0 0,0 -100,-52 -195,-139 -247,-228 84,-131 116,-255 128,-330l-157 0c-19,96 -63,196 -124,280l-26 36 19 41c65,143 217,286 376,357l31 14 0 0 0 0 31 -14c160,-70 311,-214 376,-357l19 -41 -26 -36z"/>
		<polygon points="643,1766 2405,1766 2405,1914 643,1914 "/>
		<path d="M2245 1249c-85,130 -128,280 -141,381l-155 0c13,-124 63,-305 167,-465 124,-191 286,-291 468,-292l1 0c139,0 268,62 356,171 69,85 106,189 107,296l0 11c0,33 -4,66 -11,99l-151 -33c21,-96 -3,-199 -65,-276 -59,-73 -143,-114 -236,-114l-1 0c-161,0 -273,121 -339,222z"/>
		<path d="M1255 1630l155 0c-19,-179 -90,-335 -152,-473 -62,-138 -121,-268 -120,-398 1,-149 86,-301 228,-407 25,-19 95,-73 158,-131 63,58 134,112 158,131 141,106 226,258 228,407 1,130 -58,260 -120,398 -62,138 -132,294 -152,473l155 0c19,-148 79,-281 137,-410 69,-154 135,-299 134,-462 -2,-197 -110,-395 -289,-529 -21,-16 -131,-100 -195,-168l-56 -61 -56 61c-63,68 -173,152 -195,168 -179,134 -288,332 -289,529 -1,164 64,309 134,462 58,129 118,262 137,410z"/>
		<path d="M803 1249c85,130 128,280 141,381l155 0c-13,-124 -63,-305 -167,-465 -124,-191 -286,-291 -468,-292l-1 0c-139,0 -268,62 -356,171 -92,114 -127,262 -96,406l151 -33c-21,-96 3,-199 65,-276 59,-73 143,-114 236,-114l1 0c161,0 273,121 339,222z"/>
	</symbol>
 </defs>
</svg>
